<svg width="317" height="257" viewBox="0 0 317 257" fill="none" xmlns="http://www.w3.org/2000/svg">
<mask id="mask0_1050_32665" style="mask-type:alpha" maskUnits="userSpaceOnUse" x="0" y="-204" width="469" height="461">
<g clip-path="url(#clip0_1050_32665)">
<path d="M469 26.5C469 153.802 364.011 257 234.5 257C104.989 257 0 153.802 0 26.5C0 -100.802 104.989 -204 234.5 -204C364.011 -204 469 -100.802 469 26.5ZM21.7732 26.5C21.7732 141.982 117.014 235.598 234.5 235.598C351.986 235.598 447.227 141.982 447.227 26.5C447.227 -88.9817 351.986 -182.598 234.5 -182.598C117.014 -182.598 21.7732 -88.9817 21.7732 26.5Z" fill="#46689B"/>
</g>
</mask>
<g mask="url(#mask0_1050_32665)">
<circle cx="317" cy="104" r="4" fill="#4F6E9B"/>
<circle cx="125" cy="104" r="4" fill="#4F6E9B"/>
<circle cx="317" cy="116" r="4" fill="#4F6E9B"/>
<circle cx="125" cy="116" r="4" fill="#4F6E9B"/>
<circle cx="317" cy="128" r="4" fill="#4F6E9B"/>
<circle cx="125" cy="128" r="4" fill="#4F6E9B"/>
<circle cx="317" cy="140" r="4" fill="#4F6E9B"/>
<circle cx="125" cy="140" r="4" fill="#4F6E9B"/>
<circle cx="317" cy="152" r="4" fill="#4F6E9B"/>
<circle cx="125" cy="152" r="4" fill="#4F6E9B"/>
<circle cx="317" cy="164" r="4" fill="#4F6E9B"/>
<circle cx="125" cy="164" r="4" fill="#4F6E9B"/>
<circle cx="317" cy="176" r="4" fill="#4F6E9B"/>
<circle cx="125" cy="176" r="4" fill="#4F6E9B"/>
<circle cx="317" cy="188" r="4" fill="#4F6E9B"/>
<circle cx="125" cy="188" r="4" fill="#4F6E9B"/>
<circle cx="317" cy="200" r="4" fill="#4F6E9B"/>
<circle cx="317" cy="8" r="4" fill="#4F6E9B"/>
<circle cx="125" cy="200" r="4" fill="#4F6E9B"/>
<circle cx="125" cy="8" r="4" fill="#4F6E9B"/>
<circle cx="317" cy="212" r="4" fill="#4F6E9B"/>
<circle cx="317" cy="20" r="4" fill="#4F6E9B"/>
<circle cx="125" cy="212" r="4" fill="#4F6E9B"/>
<circle cx="125" cy="20" r="4" fill="#4F6E9B"/>
<circle cx="317" cy="224" r="4" fill="#4F6E9B"/>
<circle cx="317" cy="32" r="4" fill="#4F6E9B"/>
<circle cx="125" cy="224" r="4" fill="#4F6E9B"/>
<circle cx="125" cy="32" r="4" fill="#4F6E9B"/>
<circle cx="317" cy="236" r="4" fill="#4F6E9B"/>
<circle cx="317" cy="44" r="4" fill="#4F6E9B"/>
<circle cx="125" cy="236" r="4" fill="#4F6E9B"/>
<circle cx="125" cy="44" r="4" fill="#4F6E9B"/>
<circle cx="317" cy="248" r="4" fill="#4F6E9B"/>
<circle cx="317" cy="56" r="4" fill="#4F6E9B"/>
<circle cx="125" cy="248" r="4" fill="#4F6E9B"/>
<circle cx="125" cy="56" r="4" fill="#4F6E9B"/>
<circle cx="317" cy="260" r="4" fill="#4F6E9B"/>
<circle cx="317" cy="68" r="4" fill="#4F6E9B"/>
<circle cx="125" cy="260" r="4" fill="#4F6E9B"/>
<circle cx="125" cy="68" r="4" fill="#4F6E9B"/>
<circle cx="317" cy="80" r="4" fill="#4F6E9B"/>
<circle cx="125" cy="80" r="4" fill="#4F6E9B"/>
<circle cx="317" cy="92" r="4" fill="#4F6E9B"/>
<circle cx="125" cy="92" r="4" fill="#4F6E9B"/>
<circle cx="29" cy="104" r="4" fill="#4F6E9B"/>
<circle cx="221" cy="104" r="4" fill="#4F6E9B"/>
<circle cx="29" cy="116" r="4" fill="#4F6E9B"/>
<circle cx="221" cy="116" r="4" fill="#4F6E9B"/>
<circle cx="29" cy="128" r="4" fill="#4F6E9B"/>
<circle cx="221" cy="128" r="4" fill="#4F6E9B"/>
<circle cx="29" cy="140" r="4" fill="#4F6E9B"/>
<circle cx="221" cy="140" r="4" fill="#4F6E9B"/>
<circle cx="29" cy="152" r="4" fill="#4F6E9B"/>
<circle cx="221" cy="152" r="4" fill="#4F6E9B"/>
<circle cx="29" cy="164" r="4" fill="#4F6E9B"/>
<circle cx="221" cy="164" r="4" fill="#4F6E9B"/>
<circle cx="29" cy="176" r="4" fill="#4F6E9B"/>
<circle cx="221" cy="176" r="4" fill="#4F6E9B"/>
<circle cx="29" cy="188" r="4" fill="#4F6E9B"/>
<circle cx="221" cy="188" r="4" fill="#4F6E9B"/>
<circle cx="29" cy="200" r="4" fill="#4F6E9B"/>
<circle cx="29" cy="8" r="4" fill="#4F6E9B"/>
<circle cx="221" cy="200" r="4" fill="#4F6E9B"/>
<circle cx="221" cy="8" r="4" fill="#4F6E9B"/>
<circle cx="29" cy="212" r="4" fill="#4F6E9B"/>
<circle cx="29" cy="20" r="4" fill="#4F6E9B"/>
<circle cx="221" cy="212" r="4" fill="#4F6E9B"/>
<circle cx="221" cy="20" r="4" fill="#4F6E9B"/>
<circle cx="29" cy="224" r="4" fill="#4F6E9B"/>
<circle cx="29" cy="32" r="4" fill="#4F6E9B"/>
<circle cx="221" cy="224" r="4" fill="#4F6E9B"/>
<circle cx="221" cy="32" r="4" fill="#4F6E9B"/>
<circle cx="29" cy="236" r="4" fill="#4F6E9B"/>
<circle cx="29" cy="44" r="4" fill="#4F6E9B"/>
<circle cx="221" cy="236" r="4" fill="#4F6E9B"/>
<circle cx="221" cy="44" r="4" fill="#4F6E9B"/>
<circle cx="29" cy="248" r="4" fill="#4F6E9B"/>
<circle cx="29" cy="56" r="4" fill="#4F6E9B"/>
<circle cx="221" cy="248" r="4" fill="#4F6E9B"/>
<circle cx="221" cy="56" r="4" fill="#4F6E9B"/>
<circle cx="29" cy="260" r="4" fill="#4F6E9B"/>
<circle cx="29" cy="68" r="4" fill="#4F6E9B"/>
<circle cx="221" cy="260" r="4" fill="#4F6E9B"/>
<circle cx="221" cy="68" r="4" fill="#4F6E9B"/>
<circle cx="29" cy="80" r="4" fill="#4F6E9B"/>
<circle cx="221" cy="80" r="4" fill="#4F6E9B"/>
<circle cx="29" cy="92" r="4" fill="#4F6E9B"/>
<circle cx="221" cy="92" r="4" fill="#4F6E9B"/>
<circle cx="149" cy="104" r="4" fill="#4F6E9B"/>
<circle cx="149" cy="116" r="4" fill="#4F6E9B"/>
<circle cx="149" cy="128" r="4" fill="#4F6E9B"/>
<circle cx="149" cy="140" r="4" fill="#4F6E9B"/>
<circle cx="149" cy="152" r="4" fill="#4F6E9B"/>
<circle cx="149" cy="164" r="4" fill="#4F6E9B"/>
<circle cx="149" cy="176" r="4" fill="#4F6E9B"/>
<circle cx="149" cy="188" r="4" fill="#4F6E9B"/>
<circle cx="149" cy="200" r="4" fill="#4F6E9B"/>
<circle cx="149" cy="8" r="4" fill="#4F6E9B"/>
<circle cx="149" cy="212" r="4" fill="#4F6E9B"/>
<circle cx="149" cy="20" r="4" fill="#4F6E9B"/>
<circle cx="149" cy="224" r="4" fill="#4F6E9B"/>
<circle cx="149" cy="32" r="4" fill="#4F6E9B"/>
<circle cx="149" cy="236" r="4" fill="#4F6E9B"/>
<circle cx="149" cy="44" r="4" fill="#4F6E9B"/>
<circle cx="149" cy="248" r="4" fill="#4F6E9B"/>
<circle cx="149" cy="56" r="4" fill="#4F6E9B"/>
<circle cx="149" cy="260" r="4" fill="#4F6E9B"/>
<circle cx="149" cy="68" r="4" fill="#4F6E9B"/>
<circle cx="149" cy="80" r="4" fill="#4F6E9B"/>
<circle cx="149" cy="92" r="4" fill="#4F6E9B"/>
<circle cx="53" cy="104" r="4" fill="#4F6E9B"/>
<circle cx="245" cy="104" r="4" fill="#4F6E9B"/>
<circle cx="53" cy="116" r="4" fill="#4F6E9B"/>
<circle cx="245" cy="116" r="4" fill="#4F6E9B"/>
<circle cx="53" cy="128" r="4" fill="#4F6E9B"/>
<circle cx="245" cy="128" r="4" fill="#4F6E9B"/>
<circle cx="53" cy="140" r="4" fill="#4F6E9B"/>
<circle cx="245" cy="140" r="4" fill="#4F6E9B"/>
<circle cx="53" cy="152" r="4" fill="#4F6E9B"/>
<circle cx="245" cy="152" r="4" fill="#4F6E9B"/>
<circle cx="53" cy="164" r="4" fill="#4F6E9B"/>
<circle cx="245" cy="164" r="4" fill="#4F6E9B"/>
<circle cx="53" cy="176" r="4" fill="#4F6E9B"/>
<circle cx="245" cy="176" r="4" fill="#4F6E9B"/>
<circle cx="53" cy="188" r="4" fill="#4F6E9B"/>
<circle cx="245" cy="188" r="4" fill="#4F6E9B"/>
<circle cx="53" cy="200" r="4" fill="#4F6E9B"/>
<circle cx="53" cy="8" r="4" fill="#4F6E9B"/>
<circle cx="245" cy="200" r="4" fill="#4F6E9B"/>
<circle cx="245" cy="8" r="4" fill="#4F6E9B"/>
<circle cx="53" cy="212" r="4" fill="#4F6E9B"/>
<circle cx="53" cy="20" r="4" fill="#4F6E9B"/>
<circle cx="245" cy="212" r="4" fill="#4F6E9B"/>
<circle cx="245" cy="20" r="4" fill="#4F6E9B"/>
<circle cx="53" cy="224" r="4" fill="#4F6E9B"/>
<circle cx="53" cy="32" r="4" fill="#4F6E9B"/>
<circle cx="245" cy="224" r="4" fill="#4F6E9B"/>
<circle cx="245" cy="32" r="4" fill="#4F6E9B"/>
<circle cx="53" cy="236" r="4" fill="#4F6E9B"/>
<circle cx="53" cy="44" r="4" fill="#4F6E9B"/>
<circle cx="245" cy="236" r="4" fill="#4F6E9B"/>
<circle cx="245" cy="44" r="4" fill="#4F6E9B"/>
<circle cx="53" cy="248" r="4" fill="#4F6E9B"/>
<circle cx="53" cy="56" r="4" fill="#4F6E9B"/>
<circle cx="245" cy="248" r="4" fill="#4F6E9B"/>
<circle cx="245" cy="56" r="4" fill="#4F6E9B"/>
<circle cx="53" cy="260" r="4" fill="#4F6E9B"/>
<circle cx="53" cy="68" r="4" fill="#4F6E9B"/>
<circle cx="245" cy="260" r="4" fill="#4F6E9B"/>
<circle cx="245" cy="68" r="4" fill="#4F6E9B"/>
<circle cx="53" cy="80" r="4" fill="#4F6E9B"/>
<circle cx="245" cy="80" r="4" fill="#4F6E9B"/>
<circle cx="53" cy="92" r="4" fill="#4F6E9B"/>
<circle cx="245" cy="92" r="4" fill="#4F6E9B"/>
<circle cx="173" cy="104" r="4" fill="#4F6E9B"/>
<circle cx="173" cy="116" r="4" fill="#4F6E9B"/>
<circle cx="173" cy="128" r="4" fill="#4F6E9B"/>
<circle cx="173" cy="140" r="4" fill="#4F6E9B"/>
<circle cx="173" cy="152" r="4" fill="#4F6E9B"/>
<circle cx="173" cy="164" r="4" fill="#4F6E9B"/>
<circle cx="173" cy="176" r="4" fill="#4F6E9B"/>
<circle cx="173" cy="188" r="4" fill="#4F6E9B"/>
<circle cx="173" cy="200" r="4" fill="#4F6E9B"/>
<circle cx="173" cy="8" r="4" fill="#4F6E9B"/>
<circle cx="173" cy="212" r="4" fill="#4F6E9B"/>
<circle cx="173" cy="20" r="4" fill="#4F6E9B"/>
<circle cx="173" cy="224" r="4" fill="#4F6E9B"/>
<circle cx="173" cy="32" r="4" fill="#4F6E9B"/>
<circle cx="173" cy="236" r="4" fill="#4F6E9B"/>
<circle cx="173" cy="44" r="4" fill="#4F6E9B"/>
<circle cx="173" cy="248" r="4" fill="#4F6E9B"/>
<circle cx="173" cy="56" r="4" fill="#4F6E9B"/>
<circle cx="173" cy="260" r="4" fill="#4F6E9B"/>
<circle cx="173" cy="68" r="4" fill="#4F6E9B"/>
<circle cx="173" cy="80" r="4" fill="#4F6E9B"/>
<circle cx="173" cy="92" r="4" fill="#4F6E9B"/>
<circle cx="77" cy="104" r="4" fill="#4F6E9B"/>
<circle cx="269" cy="104" r="4" fill="#4F6E9B"/>
<circle cx="77" cy="116" r="4" fill="#4F6E9B"/>
<circle cx="269" cy="116" r="4" fill="#4F6E9B"/>
<circle cx="77" cy="128" r="4" fill="#4F6E9B"/>
<circle cx="269" cy="128" r="4" fill="#4F6E9B"/>
<circle cx="77" cy="140" r="4" fill="#4F6E9B"/>
<circle cx="269" cy="140" r="4" fill="#4F6E9B"/>
<circle cx="77" cy="152" r="4" fill="#4F6E9B"/>
<circle cx="269" cy="152" r="4" fill="#4F6E9B"/>
<circle cx="77" cy="164" r="4" fill="#4F6E9B"/>
<circle cx="269" cy="164" r="4" fill="#4F6E9B"/>
<circle cx="77" cy="176" r="4" fill="#4F6E9B"/>
<circle cx="269" cy="176" r="4" fill="#4F6E9B"/>
<circle cx="77" cy="188" r="4" fill="#4F6E9B"/>
<circle cx="269" cy="188" r="4" fill="#4F6E9B"/>
<circle cx="77" cy="200" r="4" fill="#4F6E9B"/>
<circle cx="77" cy="8" r="4" fill="#4F6E9B"/>
<circle cx="269" cy="200" r="4" fill="#4F6E9B"/>
<circle cx="269" cy="8" r="4" fill="#4F6E9B"/>
<circle cx="77" cy="212" r="4" fill="#4F6E9B"/>
<circle cx="77" cy="20" r="4" fill="#4F6E9B"/>
<circle cx="269" cy="212" r="4" fill="#4F6E9B"/>
<circle cx="269" cy="20" r="4" fill="#4F6E9B"/>
<circle cx="77" cy="224" r="4" fill="#4F6E9B"/>
<circle cx="77" cy="32" r="4" fill="#4F6E9B"/>
<circle cx="269" cy="224" r="4" fill="#4F6E9B"/>
<circle cx="269" cy="32" r="4" fill="#4F6E9B"/>
<circle cx="77" cy="236" r="4" fill="#4F6E9B"/>
<circle cx="77" cy="44" r="4" fill="#4F6E9B"/>
<circle cx="269" cy="236" r="4" fill="#4F6E9B"/>
<circle cx="269" cy="44" r="4" fill="#4F6E9B"/>
<circle cx="77" cy="248" r="4" fill="#4F6E9B"/>
<circle cx="77" cy="56" r="4" fill="#4F6E9B"/>
<circle cx="269" cy="248" r="4" fill="#4F6E9B"/>
<circle cx="269" cy="56" r="4" fill="#4F6E9B"/>
<circle cx="77" cy="260" r="4" fill="#4F6E9B"/>
<circle cx="77" cy="68" r="4" fill="#4F6E9B"/>
<circle cx="269" cy="260" r="4" fill="#4F6E9B"/>
<circle cx="269" cy="68" r="4" fill="#4F6E9B"/>
<circle cx="77" cy="80" r="4" fill="#4F6E9B"/>
<circle cx="269" cy="80" r="4" fill="#4F6E9B"/>
<circle cx="77" cy="92" r="4" fill="#4F6E9B"/>
<circle cx="269" cy="92" r="4" fill="#4F6E9B"/>
<circle cx="5" cy="104" r="4" fill="#4F6E9B"/>
<circle cx="197" cy="104" r="4" fill="#4F6E9B"/>
<circle cx="5" cy="116" r="4" fill="#4F6E9B"/>
<circle cx="197" cy="116" r="4" fill="#4F6E9B"/>
<circle cx="5" cy="128" r="4" fill="#4F6E9B"/>
<circle cx="197" cy="128" r="4" fill="#4F6E9B"/>
<circle cx="5" cy="140" r="4" fill="#4F6E9B"/>
<circle cx="197" cy="140" r="4" fill="#4F6E9B"/>
<circle cx="5" cy="152" r="4" fill="#4F6E9B"/>
<circle cx="197" cy="152" r="4" fill="#4F6E9B"/>
<circle cx="5" cy="164" r="4" fill="#4F6E9B"/>
<circle cx="197" cy="164" r="4" fill="#4F6E9B"/>
<circle cx="5" cy="176" r="4" fill="#4F6E9B"/>
<circle cx="197" cy="176" r="4" fill="#4F6E9B"/>
<circle cx="5" cy="188" r="4" fill="#4F6E9B"/>
<circle cx="197" cy="188" r="4" fill="#4F6E9B"/>
<circle cx="5" cy="200" r="4" fill="#4F6E9B"/>
<circle cx="5" cy="8" r="4" fill="#4F6E9B"/>
<circle cx="197" cy="200" r="4" fill="#4F6E9B"/>
<circle cx="197" cy="8" r="4" fill="#4F6E9B"/>
<circle cx="5" cy="212" r="4" fill="#4F6E9B"/>
<circle cx="5" cy="20" r="4" fill="#4F6E9B"/>
<circle cx="197" cy="212" r="4" fill="#4F6E9B"/>
<circle cx="197" cy="20" r="4" fill="#4F6E9B"/>
<circle cx="5" cy="224" r="4" fill="#4F6E9B"/>
<circle cx="5" cy="32" r="4" fill="#4F6E9B"/>
<circle cx="197" cy="224" r="4" fill="#4F6E9B"/>
<circle cx="197" cy="32" r="4" fill="#4F6E9B"/>
<circle cx="5" cy="236" r="4" fill="#4F6E9B"/>
<circle cx="5" cy="44" r="4" fill="#4F6E9B"/>
<circle cx="197" cy="236" r="4" fill="#4F6E9B"/>
<circle cx="197" cy="44" r="4" fill="#4F6E9B"/>
<circle cx="5" cy="248" r="4" fill="#4F6E9B"/>
<circle cx="5" cy="56" r="4" fill="#4F6E9B"/>
<circle cx="197" cy="248" r="4" fill="#4F6E9B"/>
<circle cx="197" cy="56" r="4" fill="#4F6E9B"/>
<circle cx="5" cy="260" r="4" fill="#4F6E9B"/>
<circle cx="5" cy="68" r="4" fill="#4F6E9B"/>
<circle cx="197" cy="260" r="4" fill="#4F6E9B"/>
<circle cx="197" cy="68" r="4" fill="#4F6E9B"/>
<circle cx="5" cy="80" r="4" fill="#4F6E9B"/>
<circle cx="197" cy="80" r="4" fill="#4F6E9B"/>
<circle cx="5" cy="92" r="4" fill="#4F6E9B"/>
<circle cx="197" cy="92" r="4" fill="#4F6E9B"/>
<circle cx="101" cy="104" r="4" fill="#4F6E9B"/>
<circle cx="293" cy="104" r="4" fill="#4F6E9B"/>
<circle cx="101" cy="116" r="4" fill="#4F6E9B"/>
<circle cx="293" cy="116" r="4" fill="#4F6E9B"/>
<circle cx="101" cy="128" r="4" fill="#4F6E9B"/>
<circle cx="293" cy="128" r="4" fill="#4F6E9B"/>
<circle cx="101" cy="140" r="4" fill="#4F6E9B"/>
<circle cx="293" cy="140" r="4" fill="#4F6E9B"/>
<circle cx="101" cy="152" r="4" fill="#4F6E9B"/>
<circle cx="293" cy="152" r="4" fill="#4F6E9B"/>
<circle cx="101" cy="164" r="4" fill="#4F6E9B"/>
<circle cx="293" cy="164" r="4" fill="#4F6E9B"/>
<circle cx="101" cy="176" r="4" fill="#4F6E9B"/>
<circle cx="293" cy="176" r="4" fill="#4F6E9B"/>
<circle cx="101" cy="188" r="4" fill="#4F6E9B"/>
<circle cx="293" cy="188" r="4" fill="#4F6E9B"/>
<circle cx="101" cy="200" r="4" fill="#4F6E9B"/>
<circle cx="101" cy="8" r="4" fill="#4F6E9B"/>
<circle cx="293" cy="200" r="4" fill="#4F6E9B"/>
<circle cx="293" cy="8" r="4" fill="#4F6E9B"/>
<circle cx="101" cy="212" r="4" fill="#4F6E9B"/>
<circle cx="101" cy="20" r="4" fill="#4F6E9B"/>
<circle cx="293" cy="212" r="4" fill="#4F6E9B"/>
<circle cx="293" cy="20" r="4" fill="#4F6E9B"/>
<circle cx="101" cy="224" r="4" fill="#4F6E9B"/>
<circle cx="101" cy="32" r="4" fill="#4F6E9B"/>
<circle cx="293" cy="224" r="4" fill="#4F6E9B"/>
<circle cx="293" cy="32" r="4" fill="#4F6E9B"/>
<circle cx="101" cy="236" r="4" fill="#4F6E9B"/>
<circle cx="101" cy="44" r="4" fill="#4F6E9B"/>
<circle cx="293" cy="236" r="4" fill="#4F6E9B"/>
<circle cx="293" cy="44" r="4" fill="#4F6E9B"/>
<circle cx="101" cy="248" r="4" fill="#4F6E9B"/>
<circle cx="101" cy="56" r="4" fill="#4F6E9B"/>
<circle cx="293" cy="248" r="4" fill="#4F6E9B"/>
<circle cx="293" cy="56" r="4" fill="#4F6E9B"/>
<circle cx="101" cy="260" r="4" fill="#4F6E9B"/>
<circle cx="101" cy="68" r="4" fill="#4F6E9B"/>
<circle cx="293" cy="260" r="4" fill="#4F6E9B"/>
<circle cx="293" cy="68" r="4" fill="#4F6E9B"/>
<circle cx="101" cy="80" r="4" fill="#4F6E9B"/>
<circle cx="293" cy="80" r="4" fill="#4F6E9B"/>
<circle cx="101" cy="92" r="4" fill="#4F6E9B"/>
<circle cx="293" cy="92" r="4" fill="#4F6E9B"/>
<circle cx="161" cy="104" r="4" fill="#4F6E9B"/>
<circle cx="161" cy="116" r="4" fill="#4F6E9B"/>
<circle cx="161" cy="128" r="4" fill="#4F6E9B"/>
<circle cx="161" cy="140" r="4" fill="#4F6E9B"/>
<circle cx="161" cy="152" r="4" fill="#4F6E9B"/>
<circle cx="161" cy="164" r="4" fill="#4F6E9B"/>
<circle cx="161" cy="176" r="4" fill="#4F6E9B"/>
<circle cx="161" cy="188" r="4" fill="#4F6E9B"/>
<circle cx="161" cy="200" r="4" fill="#4F6E9B"/>
<circle cx="161" cy="8" r="4" fill="#4F6E9B"/>
<circle cx="161" cy="212" r="4" fill="#4F6E9B"/>
<circle cx="161" cy="20" r="4" fill="#4F6E9B"/>
<circle cx="161" cy="224" r="4" fill="#4F6E9B"/>
<circle cx="161" cy="32" r="4" fill="#4F6E9B"/>
<circle cx="161" cy="236" r="4" fill="#4F6E9B"/>
<circle cx="161" cy="44" r="4" fill="#4F6E9B"/>
<circle cx="161" cy="248" r="4" fill="#4F6E9B"/>
<circle cx="161" cy="56" r="4" fill="#4F6E9B"/>
<circle cx="161" cy="260" r="4" fill="#4F6E9B"/>
<circle cx="161" cy="68" r="4" fill="#4F6E9B"/>
<circle cx="161" cy="80" r="4" fill="#4F6E9B"/>
<circle cx="161" cy="92" r="4" fill="#4F6E9B"/>
<circle cx="65" cy="104" r="4" fill="#4F6E9B"/>
<circle cx="257" cy="104" r="4" fill="#4F6E9B"/>
<circle cx="65" cy="116" r="4" fill="#4F6E9B"/>
<circle cx="257" cy="116" r="4" fill="#4F6E9B"/>
<circle cx="65" cy="128" r="4" fill="#4F6E9B"/>
<circle cx="257" cy="128" r="4" fill="#4F6E9B"/>
<circle cx="65" cy="140" r="4" fill="#4F6E9B"/>
<circle cx="257" cy="140" r="4" fill="#4F6E9B"/>
<circle cx="65" cy="152" r="4" fill="#4F6E9B"/>
<circle cx="257" cy="152" r="4" fill="#4F6E9B"/>
<circle cx="65" cy="164" r="4" fill="#4F6E9B"/>
<circle cx="257" cy="164" r="4" fill="#4F6E9B"/>
<circle cx="65" cy="176" r="4" fill="#4F6E9B"/>
<circle cx="257" cy="176" r="4" fill="#4F6E9B"/>
<circle cx="65" cy="188" r="4" fill="#4F6E9B"/>
<circle cx="257" cy="188" r="4" fill="#4F6E9B"/>
<circle cx="65" cy="200" r="4" fill="#4F6E9B"/>
<circle cx="65" cy="8" r="4" fill="#4F6E9B"/>
<circle cx="257" cy="200" r="4" fill="#4F6E9B"/>
<circle cx="257" cy="8" r="4" fill="#4F6E9B"/>
<circle cx="65" cy="212" r="4" fill="#4F6E9B"/>
<circle cx="65" cy="20" r="4" fill="#4F6E9B"/>
<circle cx="257" cy="212" r="4" fill="#4F6E9B"/>
<circle cx="257" cy="20" r="4" fill="#4F6E9B"/>
<circle cx="65" cy="224" r="4" fill="#4F6E9B"/>
<circle cx="65" cy="32" r="4" fill="#4F6E9B"/>
<circle cx="257" cy="224" r="4" fill="#4F6E9B"/>
<circle cx="257" cy="32" r="4" fill="#4F6E9B"/>
<circle cx="65" cy="236" r="4" fill="#4F6E9B"/>
<circle cx="65" cy="44" r="4" fill="#4F6E9B"/>
<circle cx="257" cy="236" r="4" fill="#4F6E9B"/>
<circle cx="257" cy="44" r="4" fill="#4F6E9B"/>
<circle cx="65" cy="248" r="4" fill="#4F6E9B"/>
<circle cx="65" cy="56" r="4" fill="#4F6E9B"/>
<circle cx="257" cy="248" r="4" fill="#4F6E9B"/>
<circle cx="257" cy="56" r="4" fill="#4F6E9B"/>
<circle cx="65" cy="260" r="4" fill="#4F6E9B"/>
<circle cx="65" cy="68" r="4" fill="#4F6E9B"/>
<circle cx="257" cy="260" r="4" fill="#4F6E9B"/>
<circle cx="257" cy="68" r="4" fill="#4F6E9B"/>
<circle cx="65" cy="80" r="4" fill="#4F6E9B"/>
<circle cx="257" cy="80" r="4" fill="#4F6E9B"/>
<circle cx="65" cy="92" r="4" fill="#4F6E9B"/>
<circle cx="257" cy="92" r="4" fill="#4F6E9B"/>
<circle cx="137" cy="104" r="4" fill="#4F6E9B"/>
<circle cx="137" cy="116" r="4" fill="#4F6E9B"/>
<circle cx="137" cy="128" r="4" fill="#4F6E9B"/>
<circle cx="137" cy="140" r="4" fill="#4F6E9B"/>
<circle cx="137" cy="152" r="4" fill="#4F6E9B"/>
<circle cx="137" cy="164" r="4" fill="#4F6E9B"/>
<circle cx="137" cy="176" r="4" fill="#4F6E9B"/>
<circle cx="137" cy="188" r="4" fill="#4F6E9B"/>
<circle cx="137" cy="200" r="4" fill="#4F6E9B"/>
<circle cx="137" cy="8" r="4" fill="#4F6E9B"/>
<circle cx="137" cy="212" r="4" fill="#4F6E9B"/>
<circle cx="137" cy="20" r="4" fill="#4F6E9B"/>
<circle cx="137" cy="224" r="4" fill="#4F6E9B"/>
<circle cx="137" cy="32" r="4" fill="#4F6E9B"/>
<circle cx="137" cy="236" r="4" fill="#4F6E9B"/>
<circle cx="137" cy="44" r="4" fill="#4F6E9B"/>
<circle cx="137" cy="248" r="4" fill="#4F6E9B"/>
<circle cx="137" cy="56" r="4" fill="#4F6E9B"/>
<circle cx="137" cy="260" r="4" fill="#4F6E9B"/>
<circle cx="137" cy="68" r="4" fill="#4F6E9B"/>
<circle cx="137" cy="80" r="4" fill="#4F6E9B"/>
<circle cx="137" cy="92" r="4" fill="#4F6E9B"/>
<circle cx="41" cy="104" r="4" fill="#4F6E9B"/>
<circle cx="233" cy="104" r="4" fill="#4F6E9B"/>
<circle cx="41" cy="116" r="4" fill="#4F6E9B"/>
<circle cx="233" cy="116" r="4" fill="#4F6E9B"/>
<circle cx="41" cy="128" r="4" fill="#4F6E9B"/>
<circle cx="233" cy="128" r="4" fill="#4F6E9B"/>
<circle cx="41" cy="140" r="4" fill="#4F6E9B"/>
<circle cx="233" cy="140" r="4" fill="#4F6E9B"/>
<circle cx="41" cy="152" r="4" fill="#4F6E9B"/>
<circle cx="233" cy="152" r="4" fill="#4F6E9B"/>
<circle cx="41" cy="164" r="4" fill="#4F6E9B"/>
<circle cx="233" cy="164" r="4" fill="#4F6E9B"/>
<circle cx="41" cy="176" r="4" fill="#4F6E9B"/>
<circle cx="233" cy="176" r="4" fill="#4F6E9B"/>
<circle cx="41" cy="188" r="4" fill="#4F6E9B"/>
<circle cx="233" cy="188" r="4" fill="#4F6E9B"/>
<circle cx="41" cy="200" r="4" fill="#4F6E9B"/>
<circle cx="41" cy="8" r="4" fill="#4F6E9B"/>
<circle cx="233" cy="200" r="4" fill="#4F6E9B"/>
<circle cx="233" cy="8" r="4" fill="#4F6E9B"/>
<circle cx="41" cy="212" r="4" fill="#4F6E9B"/>
<circle cx="41" cy="20" r="4" fill="#4F6E9B"/>
<circle cx="233" cy="212" r="4" fill="#4F6E9B"/>
<circle cx="233" cy="20" r="4" fill="#4F6E9B"/>
<circle cx="41" cy="224" r="4" fill="#4F6E9B"/>
<circle cx="41" cy="32" r="4" fill="#4F6E9B"/>
<circle cx="233" cy="224" r="4" fill="#4F6E9B"/>
<circle cx="233" cy="32" r="4" fill="#4F6E9B"/>
<circle cx="41" cy="236" r="4" fill="#4F6E9B"/>
<circle cx="41" cy="44" r="4" fill="#4F6E9B"/>
<circle cx="233" cy="236" r="4" fill="#4F6E9B"/>
<circle cx="233" cy="44" r="4" fill="#4F6E9B"/>
<circle cx="41" cy="248" r="4" fill="#4F6E9B"/>
<circle cx="41" cy="56" r="4" fill="#4F6E9B"/>
<circle cx="233" cy="248" r="4" fill="#4F6E9B"/>
<circle cx="233" cy="56" r="4" fill="#4F6E9B"/>
<circle cx="41" cy="260" r="4" fill="#4F6E9B"/>
<circle cx="41" cy="68" r="4" fill="#4F6E9B"/>
<circle cx="233" cy="260" r="4" fill="#4F6E9B"/>
<circle cx="233" cy="68" r="4" fill="#4F6E9B"/>
<circle cx="41" cy="80" r="4" fill="#4F6E9B"/>
<circle cx="233" cy="80" r="4" fill="#4F6E9B"/>
<circle cx="41" cy="92" r="4" fill="#4F6E9B"/>
<circle cx="233" cy="92" r="4" fill="#4F6E9B"/>
<circle cx="185" cy="104" r="4" fill="#4F6E9B"/>
<circle cx="185" cy="116" r="4" fill="#4F6E9B"/>
<circle cx="185" cy="128" r="4" fill="#4F6E9B"/>
<circle cx="185" cy="140" r="4" fill="#4F6E9B"/>
<circle cx="185" cy="152" r="4" fill="#4F6E9B"/>
<circle cx="185" cy="164" r="4" fill="#4F6E9B"/>
<circle cx="185" cy="176" r="4" fill="#4F6E9B"/>
<circle cx="185" cy="188" r="4" fill="#4F6E9B"/>
<circle cx="185" cy="200" r="4" fill="#4F6E9B"/>
<circle cx="185" cy="8" r="4" fill="#4F6E9B"/>
<circle cx="185" cy="212" r="4" fill="#4F6E9B"/>
<circle cx="185" cy="20" r="4" fill="#4F6E9B"/>
<circle cx="185" cy="224" r="4" fill="#4F6E9B"/>
<circle cx="185" cy="32" r="4" fill="#4F6E9B"/>
<circle cx="185" cy="236" r="4" fill="#4F6E9B"/>
<circle cx="185" cy="44" r="4" fill="#4F6E9B"/>
<circle cx="185" cy="248" r="4" fill="#4F6E9B"/>
<circle cx="185" cy="56" r="4" fill="#4F6E9B"/>
<circle cx="185" cy="260" r="4" fill="#4F6E9B"/>
<circle cx="185" cy="68" r="4" fill="#4F6E9B"/>
<circle cx="185" cy="80" r="4" fill="#4F6E9B"/>
<circle cx="185" cy="92" r="4" fill="#4F6E9B"/>
<circle cx="89" cy="104" r="4" fill="#4F6E9B"/>
<circle cx="281" cy="104" r="4" fill="#4F6E9B"/>
<circle cx="89" cy="116" r="4" fill="#4F6E9B"/>
<circle cx="281" cy="116" r="4" fill="#4F6E9B"/>
<circle cx="89" cy="128" r="4" fill="#4F6E9B"/>
<circle cx="281" cy="128" r="4" fill="#4F6E9B"/>
<circle cx="89" cy="140" r="4" fill="#4F6E9B"/>
<circle cx="281" cy="140" r="4" fill="#4F6E9B"/>
<circle cx="89" cy="152" r="4" fill="#4F6E9B"/>
<circle cx="281" cy="152" r="4" fill="#4F6E9B"/>
<circle cx="89" cy="164" r="4" fill="#4F6E9B"/>
<circle cx="281" cy="164" r="4" fill="#4F6E9B"/>
<circle cx="89" cy="176" r="4" fill="#4F6E9B"/>
<circle cx="281" cy="176" r="4" fill="#4F6E9B"/>
<circle cx="89" cy="188" r="4" fill="#4F6E9B"/>
<circle cx="281" cy="188" r="4" fill="#4F6E9B"/>
<circle cx="89" cy="200" r="4" fill="#4F6E9B"/>
<circle cx="89" cy="8" r="4" fill="#4F6E9B"/>
<circle cx="281" cy="200" r="4" fill="#4F6E9B"/>
<circle cx="281" cy="8" r="4" fill="#4F6E9B"/>
<circle cx="89" cy="212" r="4" fill="#4F6E9B"/>
<circle cx="89" cy="20" r="4" fill="#4F6E9B"/>
<circle cx="281" cy="212" r="4" fill="#4F6E9B"/>
<circle cx="281" cy="20" r="4" fill="#4F6E9B"/>
<circle cx="89" cy="224" r="4" fill="#4F6E9B"/>
<circle cx="89" cy="32" r="4" fill="#4F6E9B"/>
<circle cx="281" cy="224" r="4" fill="#4F6E9B"/>
<circle cx="281" cy="32" r="4" fill="#4F6E9B"/>
<circle cx="89" cy="236" r="4" fill="#4F6E9B"/>
<circle cx="89" cy="44" r="4" fill="#4F6E9B"/>
<circle cx="281" cy="236" r="4" fill="#4F6E9B"/>
<circle cx="281" cy="44" r="4" fill="#4F6E9B"/>
<circle cx="89" cy="248" r="4" fill="#4F6E9B"/>
<circle cx="89" cy="56" r="4" fill="#4F6E9B"/>
<circle cx="281" cy="248" r="4" fill="#4F6E9B"/>
<circle cx="281" cy="56" r="4" fill="#4F6E9B"/>
<circle cx="89" cy="260" r="4" fill="#4F6E9B"/>
<circle cx="89" cy="68" r="4" fill="#4F6E9B"/>
<circle cx="281" cy="260" r="4" fill="#4F6E9B"/>
<circle cx="281" cy="68" r="4" fill="#4F6E9B"/>
<circle cx="89" cy="80" r="4" fill="#4F6E9B"/>
<circle cx="281" cy="80" r="4" fill="#4F6E9B"/>
<circle cx="89" cy="92" r="4" fill="#4F6E9B"/>
<circle cx="281" cy="92" r="4" fill="#4F6E9B"/>
<circle cx="17" cy="104" r="4" fill="#4F6E9B"/>
<circle cx="209" cy="104" r="4" fill="#4F6E9B"/>
<circle cx="17" cy="116" r="4" fill="#4F6E9B"/>
<circle cx="209" cy="116" r="4" fill="#4F6E9B"/>
<circle cx="17" cy="128" r="4" fill="#4F6E9B"/>
<circle cx="209" cy="128" r="4" fill="#4F6E9B"/>
<circle cx="17" cy="140" r="4" fill="#4F6E9B"/>
<circle cx="209" cy="140" r="4" fill="#4F6E9B"/>
<circle cx="17" cy="152" r="4" fill="#4F6E9B"/>
<circle cx="209" cy="152" r="4" fill="#4F6E9B"/>
<circle cx="17" cy="164" r="4" fill="#4F6E9B"/>
<circle cx="209" cy="164" r="4" fill="#4F6E9B"/>
<circle cx="17" cy="176" r="4" fill="#4F6E9B"/>
<circle cx="209" cy="176" r="4" fill="#4F6E9B"/>
<circle cx="17" cy="188" r="4" fill="#4F6E9B"/>
<circle cx="209" cy="188" r="4" fill="#4F6E9B"/>
<circle cx="17" cy="200" r="4" fill="#4F6E9B"/>
<circle cx="17" cy="8" r="4" fill="#4F6E9B"/>
<circle cx="209" cy="200" r="4" fill="#4F6E9B"/>
<circle cx="209" cy="8" r="4" fill="#4F6E9B"/>
<circle cx="17" cy="212" r="4" fill="#4F6E9B"/>
<circle cx="17" cy="20" r="4" fill="#4F6E9B"/>
<circle cx="209" cy="212" r="4" fill="#4F6E9B"/>
<circle cx="209" cy="20" r="4" fill="#4F6E9B"/>
<circle cx="17" cy="224" r="4" fill="#4F6E9B"/>
<circle cx="17" cy="32" r="4" fill="#4F6E9B"/>
<circle cx="209" cy="224" r="4" fill="#4F6E9B"/>
<circle cx="209" cy="32" r="4" fill="#4F6E9B"/>
<circle cx="17" cy="236" r="4" fill="#4F6E9B"/>
<circle cx="17" cy="44" r="4" fill="#4F6E9B"/>
<circle cx="209" cy="236" r="4" fill="#4F6E9B"/>
<circle cx="209" cy="44" r="4" fill="#4F6E9B"/>
<circle cx="17" cy="248" r="4" fill="#4F6E9B"/>
<circle cx="17" cy="56" r="4" fill="#4F6E9B"/>
<circle cx="209" cy="248" r="4" fill="#4F6E9B"/>
<circle cx="209" cy="56" r="4" fill="#4F6E9B"/>
<circle cx="17" cy="260" r="4" fill="#4F6E9B"/>
<circle cx="17" cy="68" r="4" fill="#4F6E9B"/>
<circle cx="209" cy="260" r="4" fill="#4F6E9B"/>
<circle cx="209" cy="68" r="4" fill="#4F6E9B"/>
<circle cx="17" cy="80" r="4" fill="#4F6E9B"/>
<circle cx="209" cy="80" r="4" fill="#4F6E9B"/>
<circle cx="17" cy="92" r="4" fill="#4F6E9B"/>
<circle cx="209" cy="92" r="4" fill="#4F6E9B"/>
<circle cx="113" cy="104" r="4" fill="#4F6E9B"/>
<circle cx="305" cy="104" r="4" fill="#4F6E9B"/>
<circle cx="113" cy="116" r="4" fill="#4F6E9B"/>
<circle cx="305" cy="116" r="4" fill="#4F6E9B"/>
<circle cx="113" cy="128" r="4" fill="#4F6E9B"/>
<circle cx="305" cy="128" r="4" fill="#4F6E9B"/>
<circle cx="113" cy="140" r="4" fill="#4F6E9B"/>
<circle cx="305" cy="140" r="4" fill="#4F6E9B"/>
<circle cx="113" cy="152" r="4" fill="#4F6E9B"/>
<circle cx="305" cy="152" r="4" fill="#4F6E9B"/>
<circle cx="113" cy="164" r="4" fill="#4F6E9B"/>
<circle cx="305" cy="164" r="4" fill="#4F6E9B"/>
<circle cx="113" cy="176" r="4" fill="#4F6E9B"/>
<circle cx="305" cy="176" r="4" fill="#4F6E9B"/>
<circle cx="113" cy="188" r="4" fill="#4F6E9B"/>
<circle cx="305" cy="188" r="4" fill="#4F6E9B"/>
<circle cx="113" cy="200" r="4" fill="#4F6E9B"/>
<circle cx="113" cy="8" r="4" fill="#4F6E9B"/>
<circle cx="305" cy="200" r="4" fill="#4F6E9B"/>
<circle cx="305" cy="8" r="4" fill="#4F6E9B"/>
<circle cx="113" cy="212" r="4" fill="#4F6E9B"/>
<circle cx="113" cy="20" r="4" fill="#4F6E9B"/>
<circle cx="305" cy="212" r="4" fill="#4F6E9B"/>
<circle cx="305" cy="20" r="4" fill="#4F6E9B"/>
<circle cx="113" cy="224" r="4" fill="#4F6E9B"/>
<circle cx="113" cy="32" r="4" fill="#4F6E9B"/>
<circle cx="305" cy="224" r="4" fill="#4F6E9B"/>
<circle cx="305" cy="32" r="4" fill="#4F6E9B"/>
<circle cx="113" cy="236" r="4" fill="#4F6E9B"/>
<circle cx="113" cy="44" r="4" fill="#4F6E9B"/>
<circle cx="305" cy="236" r="4" fill="#4F6E9B"/>
<circle cx="305" cy="44" r="4" fill="#4F6E9B"/>
<circle cx="113" cy="248" r="4" fill="#4F6E9B"/>
<circle cx="113" cy="56" r="4" fill="#4F6E9B"/>
<circle cx="305" cy="248" r="4" fill="#4F6E9B"/>
<circle cx="305" cy="56" r="4" fill="#4F6E9B"/>
<circle cx="113" cy="260" r="4" fill="#4F6E9B"/>
<circle cx="113" cy="68" r="4" fill="#4F6E9B"/>
<circle cx="305" cy="260" r="4" fill="#4F6E9B"/>
<circle cx="305" cy="68" r="4" fill="#4F6E9B"/>
<circle cx="113" cy="80" r="4" fill="#4F6E9B"/>
<circle cx="305" cy="80" r="4" fill="#4F6E9B"/>
<circle cx="113" cy="92" r="4" fill="#4F6E9B"/>
<circle cx="305" cy="92" r="4" fill="#4F6E9B"/>
</g>
<defs>
<clipPath id="clip0_1050_32665">
<rect width="469" height="461" fill="white" transform="translate(0 -204)"/>
</clipPath>
</defs>
</svg>
