<svg width="310" height="64" viewBox="0 0 310 64" fill="none" xmlns="http://www.w3.org/2000/svg">
<path fill-rule="evenodd" clip-rule="evenodd" d="M48.7207 0H33.4414V16.2185H36.1961C36.903 16.2185 37.4761 16.7916 37.4761 17.4985V26.0632L45.9977 26.0632C46.7046 26.0632 47.2777 26.6363 47.2777 27.3432V30.6968H59.6757C62.0639 30.6968 64 28.752 64 26.3529V15.3484C64 6.87172 57.1592 0 48.7207 0ZM33.4414 46.9154H36.1961C36.903 46.9154 37.4761 46.3423 37.4761 45.6354V37.0677H45.9977C46.7046 37.0677 47.2777 36.4946 47.2777 35.7877V33.3032H59.6757C62.0639 33.3032 64 35.248 64 37.6471V48.6516C64 57.1283 57.1592 64 48.7207 64H33.4414V46.9154ZM16.7191 33.3032V35.7877C16.7191 36.4946 17.2922 37.0677 17.9991 37.0677H26.5212V45.6354C26.5212 46.3423 27.0942 46.9154 27.8012 46.9154H30.5586V64L4.32432 64C1.93606 64 0 62.0552 0 59.6561L1.91542e-06 37.6471C2.12421e-06 35.248 1.93607 33.3032 4.32433 33.3032H16.7191ZM30.5586 16.2185H27.8012C27.0942 16.2185 26.5212 16.7916 26.5212 17.4985V26.0632H17.9991C17.2922 26.0632 16.7191 26.6363 16.7191 27.3432V30.6968L4.32432 30.6968C1.93606 30.6968 0 28.752 0 26.3529L3.06216e-06 4.34389C3.37534e-06 1.94483 1.93607 0 4.32433 0L30.5586 4.0254e-06L30.5586 16.2185Z" fill="white"/>
<path d="M88.3012 54.5V9.7H106.285C109.528 9.7 112.45 10.2333 115.053 11.3C117.698 12.3667 119.96 13.9027 121.837 15.908C123.757 17.9133 125.208 20.2813 126.189 23.012C127.213 25.7427 127.725 28.772 127.725 32.1C127.725 35.428 127.213 38.4787 126.189 41.252C125.208 43.9827 123.778 46.3507 121.901 48.356C120.024 50.3187 117.762 51.8333 115.117 52.9C112.472 53.9667 109.528 54.5 106.285 54.5H88.3012ZM96.6212 48.036L95.9812 46.82H105.965C108.056 46.82 109.912 46.4787 111.533 45.796C113.197 45.1133 114.605 44.132 115.757 42.852C116.909 41.572 117.784 40.036 118.381 38.244C118.978 36.4093 119.277 34.3613 119.277 32.1C119.277 29.8387 118.978 27.812 118.381 26.02C117.784 24.1853 116.888 22.628 115.693 21.348C114.541 20.068 113.154 19.0867 111.533 18.404C109.912 17.7213 108.056 17.38 105.965 17.38H95.7892L96.6212 16.292V48.036ZM150.755 55.14C147.384 55.14 144.376 54.3933 141.731 52.9C139.085 51.364 136.995 49.2733 135.459 46.628C133.923 43.9827 133.155 40.9747 133.155 37.604C133.155 34.2333 133.923 31.2253 135.459 28.58C136.995 25.9347 139.085 23.8653 141.731 22.372C144.376 20.836 147.384 20.068 150.755 20.068C154.083 20.068 157.069 20.836 159.715 22.372C162.36 23.8653 164.429 25.9347 165.923 28.58C167.459 31.2253 168.227 34.2333 168.227 37.604C168.227 40.9747 167.459 43.9827 165.923 46.628C164.429 49.2733 162.36 51.364 159.715 52.9C157.069 54.3933 154.083 55.14 150.755 55.14ZM150.755 48.164C152.589 48.164 154.211 47.6947 155.619 46.756C157.069 45.8173 158.2 44.5587 159.011 42.98C159.864 41.4013 160.269 39.6093 160.227 37.604C160.269 35.556 159.864 33.7427 159.011 32.164C158.2 30.5853 157.069 29.348 155.619 28.452C154.211 27.5133 152.589 27.044 150.755 27.044C148.92 27.044 147.256 27.5133 145.763 28.452C144.312 29.348 143.181 30.6067 142.371 32.228C141.56 33.8067 141.155 35.5987 141.155 37.604C141.155 39.6093 141.56 41.4013 142.371 42.98C143.181 44.5587 144.312 45.8173 145.763 46.756C147.256 47.6947 148.92 48.164 150.755 48.164ZM189.732 55.14C186.575 55.14 183.737 54.372 181.22 52.836C178.703 51.3 176.719 49.2093 175.268 46.564C173.817 43.9187 173.092 40.932 173.092 37.604C173.092 34.276 173.817 31.2893 175.268 28.644C176.719 25.9987 178.703 23.908 181.22 22.372C183.737 20.836 186.575 20.068 189.732 20.068C192.761 20.068 195.513 20.644 197.988 21.796C200.463 22.948 202.383 24.548 203.748 26.596L199.396 31.844C198.756 30.948 197.945 30.1373 196.964 29.412C195.983 28.6867 194.937 28.1107 193.828 27.684C192.719 27.2573 191.609 27.044 190.5 27.044C188.623 27.044 186.937 27.5133 185.444 28.452C183.993 29.348 182.841 30.6067 181.988 32.228C181.135 33.8067 180.708 35.5987 180.708 37.604C180.708 39.6093 181.135 41.4013 181.988 42.98C182.884 44.5587 184.079 45.8173 185.572 46.756C187.065 47.6947 188.729 48.164 190.564 48.164C191.673 48.164 192.74 47.9933 193.764 47.652C194.831 47.268 195.833 46.7347 196.772 46.052C197.711 45.3693 198.585 44.516 199.396 43.492L203.748 48.804C202.297 50.6813 200.292 52.2173 197.732 53.412C195.215 54.564 192.548 55.14 189.732 55.14ZM221.032 55.14C218.045 55.14 215.357 54.6493 212.968 53.668C210.621 52.644 208.701 51.1933 207.208 49.316L212.328 44.9C213.608 46.3507 215.037 47.396 216.616 48.036C218.195 48.676 219.859 48.996 221.608 48.996C222.333 48.996 222.973 48.9107 223.528 48.74C224.125 48.5693 224.637 48.3133 225.064 47.972C225.491 47.6307 225.811 47.2467 226.024 46.82C226.28 46.3507 226.408 45.8387 226.408 45.284C226.408 44.26 226.024 43.4493 225.256 42.852C224.829 42.5533 224.147 42.2333 223.208 41.892C222.312 41.5507 221.139 41.2093 219.688 40.868C217.384 40.2707 215.464 39.588 213.928 38.82C212.392 38.0093 211.197 37.1133 210.344 36.132C209.619 35.3213 209.064 34.404 208.68 33.38C208.339 32.356 208.168 31.2467 208.168 30.052C208.168 28.5587 208.488 27.2147 209.128 26.02C209.811 24.7827 210.728 23.716 211.88 22.82C213.032 21.924 214.376 21.2413 215.912 20.772C217.448 20.3027 219.048 20.068 220.712 20.068C222.419 20.068 224.061 20.2813 225.64 20.708C227.261 21.1347 228.755 21.7533 230.12 22.564C231.528 23.332 232.723 24.2707 233.704 25.38L229.352 30.18C228.541 29.412 227.645 28.7293 226.664 28.132C225.725 27.5347 224.765 27.0653 223.784 26.724C222.803 26.34 221.885 26.148 221.032 26.148C220.221 26.148 219.496 26.2333 218.856 26.404C218.216 26.532 217.683 26.7453 217.256 27.044C216.829 27.3427 216.488 27.7267 216.232 28.196C216.019 28.6227 215.912 29.1347 215.912 29.732C215.955 30.244 216.083 30.7347 216.296 31.204C216.552 31.6307 216.893 31.9933 217.32 32.292C217.789 32.5907 218.493 32.932 219.432 33.316C220.371 33.7 221.587 34.0627 223.08 34.404C225.171 34.9587 226.92 35.5773 228.328 36.26C229.736 36.9427 230.845 37.732 231.656 38.628C232.467 39.396 233.043 40.292 233.384 41.316C233.725 42.34 233.896 43.4707 233.896 44.708C233.896 46.7133 233.32 48.5053 232.168 50.084C231.059 51.6627 229.523 52.9 227.56 53.796C225.64 54.692 223.464 55.14 221.032 55.14ZM241.727 54.5V20.772H249.599V54.5H241.727ZM245.567 13.604C243.988 13.604 242.751 13.22 241.855 12.452C241.001 11.6413 240.575 10.5107 240.575 9.06C240.575 7.69467 241.023 6.58533 241.919 5.732C242.815 4.87867 244.031 4.452 245.567 4.452C247.188 4.452 248.425 4.85733 249.279 5.668C250.175 6.436 250.623 7.56667 250.623 9.06C250.623 10.3827 250.175 11.4707 249.279 12.324C248.383 13.1773 247.145 13.604 245.567 13.604ZM259.645 54.5V7.14H267.581V54.5H259.645ZM292.014 55.14C288.472 55.14 285.336 54.3933 282.606 52.9C279.918 51.4067 277.806 49.38 276.27 46.82C274.776 44.2173 274.03 41.252 274.03 37.924C274.03 35.2787 274.456 32.868 275.31 30.692C276.163 28.516 277.336 26.6387 278.83 25.06C280.366 23.4387 282.179 22.2013 284.27 21.348C286.403 20.452 288.728 20.004 291.246 20.004C293.464 20.004 295.534 20.4307 297.454 21.284C299.374 22.1373 301.038 23.3107 302.446 24.804C303.854 26.2547 304.92 28.004 305.646 30.052C306.414 32.0573 306.776 34.2547 306.734 36.644L306.67 39.396H279.342L277.87 34.02H300.078L299.054 35.108V33.7C298.926 32.3773 298.499 31.2253 297.774 30.244C297.048 29.22 296.11 28.4307 294.958 27.876C293.848 27.2787 292.611 26.98 291.246 26.98C289.155 26.98 287.384 27.3853 285.934 28.196C284.526 29.0067 283.459 30.18 282.734 31.716C282.008 33.2093 281.646 35.0867 281.646 37.348C281.646 39.524 282.094 41.4227 282.99 43.044C283.928 44.6653 285.23 45.924 286.894 46.82C288.6 47.6733 290.584 48.1 292.846 48.1C294.424 48.1 295.875 47.844 297.198 47.332C298.52 46.82 299.95 45.9027 301.486 44.58L305.39 50.02C304.238 51.0867 302.915 52.004 301.422 52.772C299.971 53.4973 298.435 54.0733 296.814 54.5C295.192 54.9267 293.592 55.14 292.014 55.14Z" fill="white"/>
</svg>
