<svg width="233" height="48" viewBox="0 0 233 48" fill="none" xmlns="http://www.w3.org/2000/svg">
<path fill-rule="evenodd" clip-rule="evenodd" d="M36.5405 0H25.0811V12.1637H27.1464C27.6766 12.1637 28.1064 12.5935 28.1064 13.1237V19.5468L34.4976 19.5468C35.0278 19.5468 35.4576 19.9766 35.4576 20.5068V23.0226H44.7568C46.5479 23.0226 48 21.564 48 19.7647V11.5113C48 5.15379 42.8694 0 36.5405 0ZM25.0811 35.1863H27.1464C27.6766 35.1863 28.1064 34.7565 28.1064 34.2263V27.8002H34.4976C35.0278 27.8002 35.4576 27.3704 35.4576 26.8402V24.9774H44.7568C46.5479 24.9774 48 26.436 48 28.2353V36.4887C48 42.8462 42.8694 48 36.5405 48H25.0811V35.1863ZM12.5387 24.9774V26.8402C12.5387 27.3704 12.9685 27.8002 13.4987 27.8002L19.8902 27.8002V34.2263C19.8902 34.7565 20.32 35.1863 20.8502 35.1863H22.9189V48L3.24324 48C1.45205 48 0 46.5414 0 44.7421V28.2353C0 26.436 1.45205 24.9774 3.24324 24.9774H12.5387ZM22.9189 12.1637H20.8502C20.32 12.1637 19.8902 12.5935 19.8902 13.1237L19.8902 19.5468H13.4987C12.9685 19.5468 12.5387 19.9766 12.5387 20.5068V23.0226L3.24324 23.0226C1.45205 23.0226 0 21.564 0 19.7647L2.29662e-06 3.25792C2.53151e-06 1.45862 1.45205 0 3.24325 0L22.9189 3.01905e-06L22.9189 12.1637Z" fill="url(#paint0_linear_731_6319)"/>
<path d="M66.2259 41V7.4H79.7139C82.1459 7.4 84.3379 7.8 86.2899 8.6C88.2739 9.4 89.9699 10.552 91.3779 12.056C92.8179 13.56 93.9059 15.336 94.6419 17.384C95.4099 19.432 95.7939 21.704 95.7939 24.2C95.7939 26.696 95.4099 28.984 94.6419 31.064C93.9059 33.112 92.8339 34.888 91.4259 36.392C90.0179 37.864 88.3219 39 86.3379 39.8C84.3539 40.6 82.1459 41 79.7139 41H66.2259ZM72.4659 36.152L71.9859 35.24H79.4739C81.0419 35.24 82.4339 34.984 83.6499 34.472C84.8979 33.96 85.9539 33.224 86.8179 32.264C87.6819 31.304 88.3379 30.152 88.7859 28.808C89.2339 27.432 89.4579 25.896 89.4579 24.2C89.4579 22.504 89.2339 20.984 88.7859 19.64C88.3379 18.264 87.6659 17.096 86.7699 16.136C85.9059 15.176 84.8659 14.44 83.6499 13.928C82.4339 13.416 81.0419 13.16 79.4739 13.16H71.8419L72.4659 12.344V36.152ZM113.066 41.48C110.538 41.48 108.282 40.92 106.298 39.8C104.314 38.648 102.746 37.08 101.594 35.096C100.442 33.112 99.866 30.856 99.866 28.328C99.866 25.8 100.442 23.544 101.594 21.56C102.746 19.576 104.314 18.024 106.298 16.904C108.282 15.752 110.538 15.176 113.066 15.176C115.562 15.176 117.802 15.752 119.786 16.904C121.77 18.024 123.322 19.576 124.442 21.56C125.594 23.544 126.17 25.8 126.17 28.328C126.17 30.856 125.594 33.112 124.442 35.096C123.322 37.08 121.77 38.648 119.786 39.8C117.802 40.92 115.562 41.48 113.066 41.48ZM113.066 36.248C114.442 36.248 115.658 35.896 116.714 35.192C117.802 34.488 118.65 33.544 119.258 32.36C119.898 31.176 120.202 29.832 120.17 28.328C120.202 26.792 119.898 25.432 119.258 24.248C118.65 23.064 117.802 22.136 116.714 21.464C115.658 20.76 114.442 20.408 113.066 20.408C111.69 20.408 110.442 20.76 109.322 21.464C108.234 22.136 107.386 23.08 106.778 24.296C106.17 25.48 105.866 26.824 105.866 28.328C105.866 29.832 106.17 31.176 106.778 32.36C107.386 33.544 108.234 34.488 109.322 35.192C110.442 35.896 111.69 36.248 113.066 36.248ZM142.299 41.48C139.931 41.48 137.803 40.904 135.915 39.752C134.027 38.6 132.539 37.032 131.451 35.048C130.363 33.064 129.819 30.824 129.819 28.328C129.819 25.832 130.363 23.592 131.451 21.608C132.539 19.624 134.027 18.056 135.915 16.904C137.803 15.752 139.931 15.176 142.299 15.176C144.571 15.176 146.635 15.608 148.491 16.472C150.347 17.336 151.787 18.536 152.811 20.072L149.547 24.008C149.067 23.336 148.459 22.728 147.723 22.184C146.987 21.64 146.203 21.208 145.371 20.888C144.539 20.568 143.707 20.408 142.875 20.408C141.467 20.408 140.203 20.76 139.083 21.464C137.995 22.136 137.131 23.08 136.491 24.296C135.851 25.48 135.531 26.824 135.531 28.328C135.531 29.832 135.851 31.176 136.491 32.36C137.163 33.544 138.059 34.488 139.179 35.192C140.299 35.896 141.547 36.248 142.923 36.248C143.755 36.248 144.555 36.12 145.323 35.864C146.123 35.576 146.875 35.176 147.579 34.664C148.283 34.152 148.939 33.512 149.547 32.744L152.811 36.728C151.723 38.136 150.219 39.288 148.299 40.184C146.411 41.048 144.411 41.48 142.299 41.48ZM165.774 41.48C163.534 41.48 161.518 41.112 159.726 40.376C157.966 39.608 156.526 38.52 155.406 37.112L159.246 33.8C160.206 34.888 161.278 35.672 162.462 36.152C163.646 36.632 164.894 36.872 166.206 36.872C166.75 36.872 167.23 36.808 167.646 36.68C168.094 36.552 168.478 36.36 168.798 36.104C169.118 35.848 169.358 35.56 169.518 35.24C169.71 34.888 169.806 34.504 169.806 34.088C169.806 33.32 169.518 32.712 168.942 32.264C168.622 32.04 168.11 31.8 167.406 31.544C166.734 31.288 165.854 31.032 164.766 30.776C163.038 30.328 161.598 29.816 160.446 29.24C159.294 28.632 158.398 27.96 157.758 27.224C157.214 26.616 156.798 25.928 156.51 25.16C156.254 24.392 156.126 23.56 156.126 22.664C156.126 21.544 156.366 20.536 156.846 19.64C157.358 18.712 158.046 17.912 158.91 17.24C159.774 16.568 160.782 16.056 161.934 15.704C163.086 15.352 164.286 15.176 165.534 15.176C166.814 15.176 168.046 15.336 169.23 15.656C170.446 15.976 171.566 16.44 172.59 17.048C173.646 17.624 174.542 18.328 175.278 19.16L172.014 22.76C171.406 22.184 170.734 21.672 169.998 21.224C169.294 20.776 168.574 20.424 167.838 20.168C167.102 19.88 166.414 19.736 165.774 19.736C165.166 19.736 164.622 19.8 164.142 19.928C163.662 20.024 163.262 20.184 162.942 20.408C162.622 20.632 162.366 20.92 162.174 21.272C162.014 21.592 161.934 21.976 161.934 22.424C161.966 22.808 162.062 23.176 162.222 23.528C162.414 23.848 162.67 24.12 162.99 24.344C163.342 24.568 163.87 24.824 164.574 25.112C165.278 25.4 166.19 25.672 167.31 25.928C168.878 26.344 170.19 26.808 171.246 27.32C172.302 27.832 173.134 28.424 173.742 29.096C174.35 29.672 174.782 30.344 175.038 31.112C175.294 31.88 175.422 32.728 175.422 33.656C175.422 35.16 174.99 36.504 174.126 37.688C173.294 38.872 172.142 39.8 170.67 40.472C169.23 41.144 167.598 41.48 165.774 41.48ZM181.295 41V15.704H187.199V41H181.295ZM184.175 10.328C182.991 10.328 182.063 10.04 181.391 9.464C180.751 8.856 180.431 8.008 180.431 6.92C180.431 5.896 180.767 5.064 181.439 4.424C182.111 3.784 183.023 3.464 184.175 3.464C185.391 3.464 186.319 3.768 186.959 4.376C187.631 4.952 187.967 5.8 187.967 6.92C187.967 7.912 187.631 8.728 186.959 9.368C186.287 10.008 185.359 10.328 184.175 10.328ZM194.733 41V5.48H200.685V41H194.733ZM219.01 41.48C216.354 41.48 214.002 40.92 211.954 39.8C209.938 38.68 208.354 37.16 207.202 35.24C206.082 33.288 205.522 31.064 205.522 28.568C205.522 26.584 205.842 24.776 206.482 23.144C207.122 21.512 208.002 20.104 209.122 18.92C210.274 17.704 211.634 16.776 213.202 16.136C214.802 15.464 216.546 15.128 218.434 15.128C220.098 15.128 221.65 15.448 223.09 16.088C224.53 16.728 225.778 17.608 226.834 18.728C227.89 19.816 228.69 21.128 229.234 22.664C229.81 24.168 230.082 25.816 230.05 27.608L230.002 29.672H209.506L208.402 25.64H225.058L224.29 26.456V25.4C224.194 24.408 223.874 23.544 223.33 22.808C222.786 22.04 222.082 21.448 221.218 21.032C220.386 20.584 219.458 20.36 218.434 20.36C216.866 20.36 215.538 20.664 214.45 21.272C213.394 21.88 212.594 22.76 212.05 23.912C211.506 25.032 211.234 26.44 211.234 28.136C211.234 29.768 211.57 31.192 212.242 32.408C212.946 33.624 213.922 34.568 215.17 35.24C216.45 35.88 217.938 36.2 219.634 36.2C220.818 36.2 221.906 36.008 222.898 35.624C223.89 35.24 224.962 34.552 226.114 33.56L229.042 37.64C228.178 38.44 227.186 39.128 226.066 39.704C224.978 40.248 223.826 40.68 222.61 41C221.394 41.32 220.194 41.48 219.01 41.48Z" fill="#3B5D8F"/>
<defs>
<linearGradient id="paint0_linear_731_6319" x1="0" y1="24.1086" x2="46.2703" y2="24.1086" gradientUnits="userSpaceOnUse">
<stop stop-color="#3B5D8F"/>
<stop offset="1" stop-color="#6688CC"/>
</linearGradient>
</defs>
</svg>
