<svg width="233" height="56" viewBox="0 0 233 56" fill="none" xmlns="http://www.w3.org/2000/svg">
<path fill-rule="evenodd" clip-rule="evenodd" d="M159.9 3.83677C151.76 4.07899 144.909 4.23459 141.368 4.22981C134.374 4.22033 117.843 5.32341 104.632 6.6863C94.4769 7.73228 77.8566 9.85378 62.7761 11.9229C58.5352 12.0768 54.2386 12.2125 50.0031 12.3236C12.1658 13.3166 7.33018 13.7584 5.5604 16.3844C3.72712 19.1063 3.73212 19.3288 5.62653 19.3025C6.14626 19.2953 6.68702 19.4234 7.15551 19.6395C6.33221 20.0464 5.86817 20.5032 5.52748 21.0416C5.45155 21.1617 5.37889 21.2771 5.30951 21.3879C2.35768 20.8406 1.96005 21.2651 2.59132 24.1061C2.73276 24.7425 2.76533 25.4826 2.70453 26.2456C2.43573 26.5184 2.38194 26.9798 2.48328 27.6902C2.25578 28.6945 1.88196 29.6497 1.39754 30.3685C-0.408993 33.0492 -0.342384 33.2655 2.33656 33.419L2.46317 33.4261C2.26112 34.0895 1.99477 34.7049 1.6742 35.2116C-0.0713532 37.9705 -0.000171422 38.1841 2.67779 38.2245C4.26305 38.2482 5.95181 38.1629 6.43052 38.0351C6.82754 37.9289 8.26747 39.1142 9.86496 40.8145C8.72937 41.1066 9.13716 41.4372 10.8196 42.2001C11.0013 42.2825 11.1799 42.3714 11.3547 42.466C12.2011 43.3597 13.0848 44.0783 14.0053 44.6218C14.996 45.8338 15.2255 46.9735 14.0669 47.0959C10.6828 47.4534 15.0505 50.3715 23.1301 53.1511C31.9212 56.1756 32.4015 56.1512 74.1143 50.5699C83.0008 49.3809 92.1331 48.0691 100.42 46.8073C105.115 46.8027 110.79 46.703 116.588 46.5238C121.002 46.5711 125.475 46.5755 129.632 46.5277C154.147 46.2499 215.281 43.3265 207.086 42.8239C200.114 42.3963 203.623 40.4963 214.517 38.8016C220.132 37.9278 224.893 36.3963 225.096 35.3983C225.298 34.4002 226.971 33.5628 228.813 33.5372C231.305 33.5026 232.131 32.6282 232.044 30.1155C232.011 29.1572 231.825 28.4074 231.416 27.8029C231.861 27.2436 232.009 26.4097 231.942 25.2108C231.814 22.9417 230.854 21.8806 228.122 21.224C229.297 21.1104 229.551 20.9199 229.012 20.4948C229.361 20.0648 229.264 19.2551 228.893 17.8727C228.767 17.4024 228.698 16.8677 228.681 16.3038C229.09 16.1622 229.077 15.9773 228.683 15.695C228.734 14.2095 229.117 12.6148 229.753 11.5028C231.377 8.66157 231.302 8.45105 228.697 8.5346C227.27 8.58051 225.758 8.72398 225.175 8.86412C224.739 8.26343 223.595 7.45045 221.89 6.52789C221.482 6.12222 221.061 5.68012 220.64 5.21426C218.259 2.57726 215.622 1.38012 212.733 1.62486C212.088 1.67956 211.251 1.73911 210.25 1.80254C204.17 0.163547 196.958 0.740334 162.592 3.60948C161.696 3.68422 160.799 3.76001 159.9 3.83677ZM19.3849 22.8666C19.2439 22.9114 19.1043 22.9564 18.9662 23.0016C18.6152 22.9189 18.266 22.8315 17.92 22.7394C18.4108 22.7763 18.9 22.8188 19.3849 22.8666ZM10.0408 18.7208C10.8054 18.5524 11.7007 18.3898 12.7538 18.2291C10.7945 18.1821 9.95977 18.3007 10.0408 18.7208Z" fill="#DDAC32" fill-opacity="0.85"/>
</svg>
